<?xml version="1.0" encoding="utf-8"?>
<svg xmlns="http://www.w3.org/2000/svg" viewBox="1148.021 1134.311 824.814 824.814" width="824.814px" height="824.814px">
  <g>
    <circle cx="1560.428" cy="1546.718" r="412.407"/>
    <g>
      <path style="fill:#FFFFFF;" d="M1372.761,1531.192v228.054c0,8.63,6.995,15.632,15.625,15.632h111.401v-194.722 c0-5.475,4.445-9.92,9.92-9.92h101.438c5.482,0,9.927,4.445,9.927,9.92v194.722h111.394c8.63,0,15.633-7.002,15.633-15.632 v-228.054l-187.669-132.79L1372.761,1531.192z"/>
      <path style="fill:#FFFFFF;" d="M1807.878,1491.148l-241.033-170.551c-3.845-2.721-8.987-2.721-12.832,0l-83.802,59.297v-20.51 c0-5.153-4.177-9.33-9.33-9.33h-41.131c-5.153,0-9.33,4.177-9.33,9.33v62.818l-97.44,68.947 c-5.008,3.543-6.195,10.476-2.651,15.484l13.484,19.056c3.544,5.008,10.476,6.195,15.484,2.651l221.134-156.471l221.134,156.471 c5.008,3.544,11.94,2.356,15.484-2.651l13.483-19.056C1814.073,1501.624,1812.886,1494.692,1807.878,1491.148z"/>
    </g>
  </g>
</svg>